<?xml version="1.0"?>
<svg xmlns="http://www.w3.org/2000/svg" xmlns:xlink="http://www.w3.org/1999/xlink" version="1.1" id="Capa_1" x="0px" y="0px" viewBox="0 0 159.822 159.822" style="enable-background:new 0 0 159.822 159.822;" xml:space="preserve" width="512px" height="512px"><g><g>
	<path d="M76.715,36.172c4.142,0,7.5-3.358,7.5-7.5C84.215,21.133,90.349,15,97.887,15h21.179c4.142,0,7.5-3.358,7.5-7.5   s-3.358-7.5-7.5-7.5H97.887c-15.81,0-28.672,12.862-28.672,28.672C69.215,32.813,72.573,36.172,76.715,36.172z" data-original="#000000" class="active-path" data-old_color="#6b3cd9" fill="#6b3cd9"/>
	<path d="M117.458,59.627H40.756c-4.142,0-7.5,3.358-7.5,7.5s3.358,7.5,7.5,7.5h28.46v77.695c0,4.142,3.358,7.5,7.5,7.5   c4.142,0,7.5-3.358,7.5-7.5V74.627h33.243c4.142,0,7.5-3.358,7.5-7.5S121.6,59.627,117.458,59.627z" data-original="#000000" class="active-path" data-old_color="#6b3cd9" fill="#6b3cd9"/>
</g></g> </svg>
