<svg width="866" height="543" viewBox="0 0 866 543" xmlns="http://www.w3.org/2000/svg"><defs><filter x="-50%" y="-50%" width="200%" height="200%" filterUnits="objectBoundingBox" id="a"><feOffset dy="21" in="SourceAlpha" result="shadowOffsetOuter1"/><feGaussianBlur stdDeviation="25" in="shadowOffsetOuter1" result="shadowBlurOuter1"/><feColorMatrix values="0 0 0 0 0 0 0 0 0 0 0 0 0 0 0 0 0 0 0.3 0" in="shadowBlurOuter1" result="shadowMatrixOuter1"/><feMerge><feMergeNode in="shadowMatrixOuter1"/><feMergeNode in="SourceGraphic"/></feMerge></filter><filter x="-50%" y="-50%" width="200%" height="200%" filterUnits="objectBoundingBox" id="b"><feGaussianBlur stdDeviation="2" in="SourceGraphic"/></filter></defs><g filter="url(#a)" transform="translate(43 28)" fill="none" fill-rule="evenodd"><path d="M79.298 433.648c-4.026 0-7.29-3.265-7.29-7.286V24.718C72.01 11.515 82.71.81 95.91.81h587.778c13.2 0 23.9 10.7 23.9 23.908v401.644c0 4.024-3.27 7.286-7.29 7.286H79.298z" fill="#FFF"/><path fill="#CBD2D4" filter="url(#b)" d="M71.09 428.483h637.82v2.994H71.09z"/><path d="M390.203 22.43c-1.12 0-2.03-.907-2.03-2.022 0-1.116.91-2.023 2.03-2.023 1.12 0 2.03.907 2.03 2.023 0 1.115-.91 2.023-2.03 2.023" fill="#BAC1C4"/><path d="M389.797 17.17c-1.79 0-3.248 1.453-3.248 3.238s1.456 3.236 3.247 3.236c1.79 0 3.248-1.45 3.248-3.236 0-1.785-1.457-3.237-3.248-3.237m0 1.85c.77 0 1.392.622 1.392 1.388 0 .766-.624 1.387-1.393 1.387-.77 0-1.392-.62-1.392-1.387 0-.766.623-1.387 1.392-1.387" fill="#D0D8DB"/><rect fill="#DEE3E6" x="97.043" y="35.781" width="586.32" height="365.729" rx=".81"/><g><path d="M1.222 433.876c-.45 0-.816.364-.816.805v4.503s21.52 7.83 97.855 8.852c76.543-.123 556.274 0 556.274 0s93.628.52 124.888-9.176v-3.81c0-.444-.36-.804-.816-.804l-777.384-.37z"/><path d="M780 434.74s-8.033 9.71-174.778 9.362c-54.97-.114-133.725-.117-214.613-.068-81.843-.05-160.77-.047-215.832.068C8.033 444.45 0 434.74 0 434.74h780z" fill="#E7E7E7"/><path d="M0 431.692c0-.998.806-1.808 1.81-1.808h776.38c1 0 1.81.802 1.81 1.808v3.047H0v-3.048z" fill="#FFF"/></g></g></svg>