<?xml version="1.0" encoding="iso-8859-1"?>
<!-- Generator: Adobe Illustrator 19.0.0, SVG Export Plug-In . SVG Version: 6.00 Build 0)  -->
<svg version="1.1" id="Capa_1" xmlns="http://www.w3.org/2000/svg" xmlns:xlink="http://www.w3.org/1999/xlink" x="0px" y="0px"
	 viewBox="0 0 512 512" style="enable-background:new 0 0 512 512;" xml:space="preserve">
<g>
	<g>
		<path d="M511.014,154.574c-7.303-37.986-25.81-72.715-53.525-100.43C430.409,27.064,396.464,8.68,359.325,0.976
			c-13.258-2.749-26.949,0.374-37.56,8.574c-10.268,7.936-16.532,19.899-17.184,32.819
			c-7.248,143.737-97.679,192.605-276.346,336.064c-0.429,0.344-0.838,0.712-1.226,1.101c-36.026,36.103-33.915,81.83-5.076,110.67
			c28.82,28.821,74.697,30.969,110.691-5.102c0.346-0.347,0.675-0.711,0.986-1.089c155.886-190.311,197.839-270.175,336.94-276.981
			c12.145-0.594,23.564-6.309,31.328-15.679C509.943,181.622,513.68,168.64,511.014,154.574z M110.897,464.42
			C90.487,484.538,63.314,489.179,43.136,469c-14.455-14.454-21.85-40.806,4.541-67.721
			c171.21-137.474,163.794-129.348,188.055-152.253c2.612,6.216,6.444,12.003,11.446,17.007c4.862,4.864,10.466,8.616,16.481,11.224
			C263.658,277.257,110.899,464.418,110.897,464.42z M308.785,235.616c-6.368,4.907-12.455,9.993-18.288,15.198
			c-11.57,3.308-19.739-3.603-22.113-5.979c-2.524-2.526-10.178-11.596-5.223-24.341c29.446-34.044,54.983-76.886,66-132.634
			c22.492,0.738,46.445,11.622,64.719,29.897c17.021,17.02,27.65,39.169,31.144,64.62
			C382.535,190.726,344.209,208.319,308.785,235.616z M469.082,177.081c-4.844,0.237-9.629,0.589-14.37,1.034
			c-4.394-31.898-17.919-59.856-39.628-81.563c-22.669-22.668-52.608-36.521-81.597-38.467c0.443-4.657,0.799-9.386,1.041-14.206
			c0.474-9.371,9.552-15.441,18.706-13.542c31.398,6.513,60.118,22.078,83.053,45.011c23.395,23.397,39.034,52.66,45.231,84.63
			C483.14,170.718,476.274,176.73,469.082,177.081z"/>
	</g>
</g>
<g>
</g>
<g>
</g>
<g>
</g>
<g>
</g>
<g>
</g>
<g>
</g>
<g>
</g>
<g>
</g>
<g>
</g>
<g>
</g>
<g>
</g>
<g>
</g>
<g>
</g>
<g>
</g>
<g>
</g>
</svg>
